<mxfile host="app.diagrams.net" agent="Mozilla/5.0 (Windows NT 10.0; Win64; x64) AppleWebKit/537.36 (KHTML, like Gecko) Chrome/141.0.0.0 Safari/537.36 Edg/141.0.0.0" version="28.2.8">
  <diagram name="Página-1" id="nGdix9Tefhak79_3T-nR">
    <mxGraphModel dx="864" dy="482" grid="1" gridSize="10" guides="1" tooltips="1" connect="1" arrows="1" fold="1" page="1" pageScale="1" pageWidth="827" pageHeight="1169" background="#ffffff" math="0" shadow="0">
      <root>
        <mxCell id="0" />
        <mxCell id="1" parent="0" />
        <mxCell id="QhsTkfnuILe21DntARuZ-6" value="" style="edgeStyle=orthogonalEdgeStyle;rounded=0;orthogonalLoop=1;jettySize=auto;html=1;" edge="1" parent="1" source="QhsTkfnuILe21DntARuZ-1" target="QhsTkfnuILe21DntARuZ-5">
          <mxGeometry relative="1" as="geometry" />
        </mxCell>
        <mxCell id="QhsTkfnuILe21DntARuZ-1" value="pedidos-api" style="whiteSpace=wrap;html=1;aspect=fixed;" vertex="1" parent="1">
          <mxGeometry x="50" y="160" width="80" height="80" as="geometry" />
        </mxCell>
        <mxCell id="QhsTkfnuILe21DntARuZ-18" value="" style="edgeStyle=orthogonalEdgeStyle;rounded=0;orthogonalLoop=1;jettySize=auto;html=1;" edge="1" parent="1" source="QhsTkfnuILe21DntARuZ-25" target="QhsTkfnuILe21DntARuZ-17">
          <mxGeometry relative="1" as="geometry">
            <mxPoint x="540" y="260" as="sourcePoint" />
          </mxGeometry>
        </mxCell>
        <mxCell id="QhsTkfnuILe21DntARuZ-16" value="" style="edgeStyle=orthogonalEdgeStyle;rounded=0;orthogonalLoop=1;jettySize=auto;html=1;exitX=1;exitY=0.5;exitDx=0;exitDy=0;" edge="1" parent="1" source="QhsTkfnuILe21DntARuZ-24" target="QhsTkfnuILe21DntARuZ-15">
          <mxGeometry relative="1" as="geometry">
            <mxPoint x="540" y="140" as="sourcePoint" />
          </mxGeometry>
        </mxCell>
        <mxCell id="QhsTkfnuILe21DntARuZ-15" value="notificacao" style="whiteSpace=wrap;html=1;" vertex="1" parent="1">
          <mxGeometry x="580" y="110" width="120" height="60" as="geometry" />
        </mxCell>
        <mxCell id="QhsTkfnuILe21DntARuZ-35" value="" style="edgeStyle=orthogonalEdgeStyle;rounded=0;orthogonalLoop=1;jettySize=auto;html=1;" edge="1" parent="1" source="QhsTkfnuILe21DntARuZ-17" target="QhsTkfnuILe21DntARuZ-34">
          <mxGeometry relative="1" as="geometry" />
        </mxCell>
        <mxCell id="QhsTkfnuILe21DntARuZ-17" value="processador" style="whiteSpace=wrap;html=1;" vertex="1" parent="1">
          <mxGeometry x="580" y="235" width="120" height="60" as="geometry" />
        </mxCell>
        <mxCell id="QhsTkfnuILe21DntARuZ-19" value="" style="swimlane;startSize=0;" vertex="1" parent="1">
          <mxGeometry x="170" y="100" width="370" height="230" as="geometry" />
        </mxCell>
        <mxCell id="QhsTkfnuILe21DntARuZ-38" value="" style="edgeStyle=orthogonalEdgeStyle;rounded=0;orthogonalLoop=1;jettySize=auto;html=1;entryX=0;entryY=0.7;entryDx=0;entryDy=0;" edge="1" parent="QhsTkfnuILe21DntARuZ-19" source="QhsTkfnuILe21DntARuZ-5" target="QhsTkfnuILe21DntARuZ-25">
          <mxGeometry relative="1" as="geometry">
            <mxPoint x="90" y="230" as="targetPoint" />
            <Array as="points">
              <mxPoint x="90" y="175" />
            </Array>
          </mxGeometry>
        </mxCell>
        <mxCell id="QhsTkfnuILe21DntARuZ-5" value="Pedido criado" style="rhombus;whiteSpace=wrap;html=1;" vertex="1" parent="QhsTkfnuILe21DntARuZ-19">
          <mxGeometry x="30" y="60" width="120" height="80" as="geometry" />
        </mxCell>
        <mxCell id="QhsTkfnuILe21DntARuZ-22" value="Gerar notificação" style="text;html=1;whiteSpace=wrap;strokeColor=none;fillColor=none;align=center;verticalAlign=middle;rounded=0;fontColor=#000000;" vertex="1" parent="QhsTkfnuILe21DntARuZ-19">
          <mxGeometry x="240" y="70" width="60" height="30" as="geometry" />
        </mxCell>
        <mxCell id="QhsTkfnuILe21DntARuZ-23" value="Gerar processamento" style="text;html=1;whiteSpace=wrap;strokeColor=none;fillColor=none;align=center;verticalAlign=middle;rounded=0;fontColor=#000000;" vertex="1" parent="QhsTkfnuILe21DntARuZ-19">
          <mxGeometry x="240" y="190" width="60" height="30" as="geometry" />
        </mxCell>
        <mxCell id="QhsTkfnuILe21DntARuZ-24" value="" style="shape=message;html=1;html=1;outlineConnect=0;labelPosition=center;verticalLabelPosition=bottom;align=center;verticalAlign=top;" vertex="1" parent="QhsTkfnuILe21DntARuZ-19">
          <mxGeometry x="215" y="20" width="110" height="40" as="geometry" />
        </mxCell>
        <mxCell id="QhsTkfnuILe21DntARuZ-14" value="" style="edgeStyle=orthogonalEdgeStyle;rounded=0;orthogonalLoop=1;jettySize=auto;html=1;entryX=0;entryY=0.5;entryDx=0;entryDy=0;" edge="1" parent="QhsTkfnuILe21DntARuZ-19" source="QhsTkfnuILe21DntARuZ-5" target="QhsTkfnuILe21DntARuZ-24">
          <mxGeometry relative="1" as="geometry">
            <mxPoint x="210" y="40" as="targetPoint" />
            <Array as="points">
              <mxPoint x="90" y="40" />
            </Array>
          </mxGeometry>
        </mxCell>
        <mxCell id="QhsTkfnuILe21DntARuZ-25" value="" style="shape=message;html=1;html=1;outlineConnect=0;labelPosition=center;verticalLabelPosition=bottom;align=center;verticalAlign=top;" vertex="1" parent="QhsTkfnuILe21DntARuZ-19">
          <mxGeometry x="210" y="140" width="120" height="50" as="geometry" />
        </mxCell>
        <mxCell id="QhsTkfnuILe21DntARuZ-20" value="RabbitMQ" style="text;html=1;whiteSpace=wrap;align=center;verticalAlign=middle;rounded=0;fontColor=#000000;" vertex="1" parent="1">
          <mxGeometry x="325" y="60" width="60" height="30" as="geometry" />
        </mxCell>
        <mxCell id="QhsTkfnuILe21DntARuZ-34" value="pedidos-api" style="shape=cylinder3;whiteSpace=wrap;html=1;boundedLbl=1;backgroundOutline=1;size=15;" vertex="1" parent="1">
          <mxGeometry x="740" y="225" width="60" height="80" as="geometry" />
        </mxCell>
      </root>
    </mxGraphModel>
  </diagram>
</mxfile>
